<svg width="34" height="42" viewBox="0 0 34 42" fill="none" xmlns="http://www.w3.org/2000/svg">
<path d="M28.4143 40.1657H4.91632C3.87765 40.1657 2.88152 39.753 2.14706 39.0186C1.41261 38.2841 1 37.288 1 36.2493V4.91876C1 3.88008 1.41261 2.88395 2.14706 2.1495C2.88152 1.41505 3.87765 1.00243 4.91632 1.00243H18.8193C19.3636 0.983233 19.906 1.07781 20.4118 1.28011C20.9176 1.48241 21.3755 1.78799 21.7565 2.17733L31.3515 12.3598C32.018 13.1138 32.3686 14.0955 32.3306 15.1012V36.2493C32.3306 37.288 31.918 38.2841 31.1835 39.0186C30.4491 39.753 29.4529 40.1657 28.4143 40.1657Z" stroke="black" stroke-width="2" stroke-linecap="round" stroke-linejoin="round"/>
<path d="M10.7908 29.3958H22.5397" stroke="black" stroke-width="2" stroke-linecap="round" stroke-linejoin="round"/>
</svg>
