<svg width="20" height="20" viewBox="0 0 20 20" fill="none" xmlns="http://www.w3.org/2000/svg">
<path d="M10 0C7.34784 0 4.8043 1.05357 2.92893 2.92893C1.05357 4.8043 0 7.34784 0 10C0 12.6522 1.05357 15.1957 2.92893 17.0711C4.8043 18.9464 7.34784 20 10 20C12.6522 20 15.1957 18.9464 17.0711 17.0711C18.9464 15.1957 20 12.6522 20 10C20 7.34784 18.9464 4.8043 17.0711 2.92893C15.1957 1.05357 12.6522 0 10 0Z" fill="#1976D2"/>
<path d="M15.9685 7.0205C15.9915 6.945 16.0025 6.875 15.9995 6.8125C15.992 6.6315 15.8675 6.5 15.5745 6.5H14.2655C13.935 6.5 13.7825 6.7 13.6935 6.9005C13.6935 6.9005 12.8775 8.58 11.937 9.6875C11.632 10.008 11.477 10 11.312 10C11.2235 10 11 9.893 11 9.5995V7.007C11 6.66 10.9135 6.5 10.634 6.5H8.3095C8.106 6.5 8 6.66 8 6.8205C8 7.154 8.449 7.234 8.5 8.1685V9.98C8.5 10.42 8.4235 10.5 8.2585 10.5C7.8135 10.5 6.9375 9 6.351 7.034C6.224 6.647 6.097 6.5 5.7665 6.5H4.445C4.0635 6.5 4 6.687 4 6.887C4 7.2475 4.3 9.1965 5.9375 11.4375C7.125 13.0625 8.6895 14 10.0745 14C10.9135 14 10.9995 13.7865 10.9995 13.453V11.967C11 11.5665 11.0915 11.5 11.3585 11.5C11.549 11.5 11.9375 11.625 12.6875 12.5C13.5525 13.509 13.7095 14 14.2055 14H15.5145C15.8185 14 15.993 13.8725 16 13.625C16.0015 13.562 15.9925 13.4915 15.972 13.413C15.875 13.125 15.43 12.421 14.875 11.75C14.5675 11.3785 14.264 11.0105 14.1245 10.8105C14.031 10.68 13.9955 10.588 14 10.5C14.0045 10.4075 14.0525 10.3195 14.1245 10.1965C14.1115 10.1965 15.8035 7.821 15.9685 7.0205Z" fill="white"/>
</svg>
