<svg width="21" height="16" viewBox="0 0 21 16" fill="none" xmlns="http://www.w3.org/2000/svg">
<path d="M19.6 12.95C19.4 14 18.55 14.8 17.5 14.95C15.85 15.2 13.1 15.5 10 15.5C6.95 15.5 4.2 15.2 2.5 14.95C1.45 14.8 0.6 14 0.4 12.95C0.2 11.8 0 10.1 0 8C0 5.9 0.2 4.2 0.4 3.05C0.6 2 1.45 1.2 2.5 1.05C4.15 0.8 6.9 0.5 10 0.5C13.1 0.5 15.8 0.8 17.5 1.05C18.55 1.2 19.4 2 19.6 3.05C19.8 4.2 20.05 5.9 20.05 8C20 10.1 19.8 11.8 19.6 12.95Z" fill="#FF3D00"/>
<path d="M8 11.5V4.5L14 8L8 11.5Z" fill="white"/>
</svg>
